<svg xmlns="http://www.w3.org/2000/svg" width="64" height="64" viewBox="0 0 64 64" role="img" aria-label="大肥猪·摸摸"><title>大肥猪·摸摸</title><g transform="translate(2 6) scale(0.9)"><g transform="rotate(5 32 44)"><g xmlns="http://www.w3.org/2000/svg" transform="translate(2 1.5) scale(.25)" stroke-linecap="round" stroke-linejoin="round">
<path fill="#FF9FA5" d="M43 199L43 214C43 220 48 223 55 223C64 223 69 220 72 216L68 204Z" />
<path fill="#FF9FA5" d="M166 205L168 217C169 222 176 226 184 225C192 224 196 218 198 209L192 202Z" />
<path fill="none" stroke="#FFD1AF" stroke-width="6.8" d="M184 38C185 30 189 27 195 30C203 33 211 42 209 47C207 53 200 51 196 46C191 39 198 26 205 24Q209 22 213 23" />
<path fill="#FFD1AF" d="M54 43C77 29 100 25 128 26C149 26 166 30 181 35C187 35 193 38 196 46C199 56 206 64 216 76C232 95 238 115 237 139C237 163 230 183 216 196C204 207 187 215 164 219C134 224 102 223 77 219C51 215 33 206 21 191C8 176 3 159 4 139C5 118 11 99 23 85L30 76C22 75 21 70 25 63L35 48C40 40 45 36 50 41Z" />
<path fill="none" stroke="#E95892" stroke-width="7.2" d="M46 42C39 41 34 53 29 59C22 67 24 73 29 73C34 73 41 68 44 64" />
<path fill="none" stroke="#E95892" stroke-width="7" d="M109 68C96 72 110 91 120 95C133 101 136 87 133 74" />
<path d="M36.3 94Q43 90 49.7 94Q43 92.2 36.3 94Z" fill="#373A32" /><path d="M87.3 105Q94 101 100.7 105Q94 103.2 87.3 105Z" fill="#373A32" /><path fill="#FF8195" d="M48 110C35 106 28 112 30 122C32 134 45 140 59 140C72 141 78 135 75 125C72 117 59 111 48 110Z" />
<path fill="#373A32" d="M43 116C39 115 38 121 40 126C41 130 45 131 48 127C50 123 48 117 43 116Z" />
<path fill="#373A32" d="M59 119C54 118 53 124 54 129C55 133 60 134 63 129C65 124 63 120 59 119Z" />
</g></g></g><g transform="translate(11 4) scale(0.75)"><path d="M0 2C-4-2-7 2-5 5L0 10L5 5C7 2 4-2 0 2Z" fill="#EA8BA5"/></g><g transform="translate(22 2) scale(0.46)"><path d="M0 2C-4-2-7 2-5 5L0 10L5 5C7 2 4-2 0 2Z" fill="#EA8BA5"/></g></svg>